<svg width="1200" height="480" viewBox="0 0 1200 480" fill="none" xmlns="http://www.w3.org/2000/svg">
<rect width="1200" height="480" rx="48" fill="#1E1E2E"/>
<path d="M392 285.16V195.56H425.152C432.32 195.56 438.251 196.755 442.944 199.144C447.637 201.533 451.136 204.819 453.44 209C455.744 213.181 456.896 217.875 456.896 223.08C456.896 228.029 455.787 232.595 453.568 236.776C451.349 240.872 447.893 244.2 443.2 246.76C438.507 249.235 432.491 250.472 425.152 250.472H408.384V285.16H392Z" fill="#F38BA8"/>
<path d="M469.366 285.16V193H485.75V285.16H469.366Z" fill="#C6D0F5"/>
<path d="M526.299 286.696C518.363 286.696 512.219 284.221 507.867 279.272C503.6 274.323 501.467 267.069 501.467 257.512V221.672H517.723V255.976C517.723 261.437 518.832 265.619 521.051 268.52C523.27 271.421 526.768 272.872 531.547 272.872C536.07 272.872 539.782 271.251 542.683 268.008C545.67 264.765 547.163 260.243 547.163 254.44V221.672H563.547V285.16H549.083L547.803 274.408C545.84 278.163 542.982 281.149 539.227 283.368C535.558 285.587 531.248 286.696 526.299 286.696Z" fill="#C6D0F5"/>
<path d="M580.366 285.16V221.672H594.958L596.494 233.576C598.798 229.48 601.913 226.237 605.838 223.848C609.849 221.373 614.542 220.136 619.918 220.136V237.416H615.31C611.726 237.416 608.526 237.971 605.71 239.08C602.894 240.189 600.675 242.109 599.054 244.84C597.518 247.571 596.75 251.368 596.75 256.232V285.16H580.366Z" fill="#C6D0F5"/>
<path d="M631.116 285.16V221.672H645.708L647.244 233.576C649.548 229.48 652.663 226.237 656.588 223.848C660.599 221.373 665.292 220.136 670.668 220.136V237.416H666.06C662.476 237.416 659.276 237.971 656.46 239.08C653.644 240.189 651.425 242.109 649.804 244.84C648.268 247.571 647.5 251.368 647.5 256.232V285.16H631.116Z" fill="#C6D0F5"/>
<path d="M690.698 211.816C687.711 211.816 685.237 210.92 683.274 209.128C681.397 207.336 680.458 205.075 680.458 202.344C680.458 199.613 681.397 197.395 683.274 195.688C685.237 193.896 687.711 193 690.698 193C693.685 193 696.117 193.896 697.994 195.688C699.957 197.395 700.938 199.613 700.938 202.344C700.938 205.075 699.957 207.336 697.994 209.128C696.117 210.92 693.685 211.816 690.698 211.816ZM682.506 285.16V221.672H698.89V285.16H682.506Z" fill="#C6D0F5"/>
<path d="M746.839 286.696C740.439 286.696 734.764 285.331 729.815 282.6C724.866 279.869 720.983 276.029 718.167 271.08C715.351 266.131 713.943 260.413 713.943 253.928C713.943 247.357 715.308 241.512 718.039 236.392C720.855 231.272 724.695 227.304 729.559 224.488C734.508 221.587 740.311 220.136 746.967 220.136C753.196 220.136 758.7 221.501 763.479 224.232C768.258 226.963 771.97 230.717 774.615 235.496C777.346 240.189 778.711 245.437 778.711 251.24C778.711 252.179 778.668 253.16 778.583 254.184C778.583 255.208 778.54 256.275 778.455 257.384H730.199C730.54 262.333 732.247 266.216 735.319 269.032C738.476 271.848 742.274 273.256 746.711 273.256C750.039 273.256 752.812 272.531 755.031 271.08C757.335 269.544 759.042 267.581 760.151 265.192H776.791C775.596 269.203 773.591 272.872 770.775 276.2C768.044 279.443 764.631 282.003 760.535 283.88C756.524 285.757 751.959 286.696 746.839 286.696ZM746.967 233.448C742.956 233.448 739.415 234.6 736.343 236.904C733.271 239.123 731.308 242.536 730.455 247.144H762.071C761.815 242.963 760.279 239.635 757.463 237.16C754.647 234.685 751.148 233.448 746.967 233.448Z" fill="#C6D0F5"/>
<path d="M792.491 285.16V193H808.875V285.16H792.491Z" fill="#C6D0F5"/>
</svg>
