<svg width="198" height="48" viewBox="0 0 198 48" fill="none" xmlns="http://www.w3.org/2000/svg">
<rect width="198" height="48" rx="16" fill="#F38BA8"/>
<path d="M20.912 29.192C20.0907 29.192 19.3653 29.0533 18.736 28.776C18.1067 28.488 17.6107 28.0827 17.248 27.56C16.8853 27.0267 16.6987 26.3813 16.688 25.624H18.848C18.8693 26.1467 19.056 26.5893 19.408 26.952C19.7707 27.304 20.2667 27.48 20.896 27.48C21.44 27.48 21.872 27.352 22.192 27.096C22.512 26.8293 22.672 26.4773 22.672 26.04C22.672 25.5813 22.528 25.224 22.24 24.968C21.9627 24.712 21.5893 24.504 21.12 24.344C20.6507 24.184 20.1493 24.0133 19.616 23.832C18.752 23.5333 18.0907 23.1493 17.632 22.68C17.184 22.2107 16.96 21.5867 16.96 20.808C16.9493 20.1467 17.104 19.5813 17.424 19.112C17.7547 18.632 18.2027 18.264 18.768 18.008C19.3333 17.7413 19.984 17.608 20.72 17.608C21.4667 17.608 22.1227 17.7413 22.688 18.008C23.264 18.2747 23.712 18.648 24.032 19.128C24.3627 19.608 24.5387 20.1787 24.56 20.84H22.368C22.3573 20.4453 22.2027 20.0987 21.904 19.8C21.616 19.4907 21.2107 19.336 20.688 19.336C20.24 19.3253 19.8613 19.4373 19.552 19.672C19.2533 19.896 19.104 20.2267 19.104 20.664C19.104 21.0373 19.2213 21.336 19.456 21.56C19.6907 21.7733 20.0107 21.9547 20.416 22.104C20.8213 22.2533 21.2853 22.4133 21.808 22.584C22.3627 22.776 22.8693 23 23.328 23.256C23.7867 23.512 24.1547 23.8533 24.432 24.28C24.7093 24.696 24.848 25.2347 24.848 25.896C24.848 26.4827 24.6987 27.0267 24.4 27.528C24.1013 28.0293 23.6587 28.4347 23.072 28.744C22.4853 29.0427 21.7653 29.192 20.912 29.192ZM30.1229 29C29.2909 29 28.6242 28.7973 28.1229 28.392C27.6215 27.9867 27.3709 27.2667 27.3709 26.232V22.776H26.0109V21.064H27.3709L27.6109 18.936H29.4189V21.064H31.5629V22.776H29.4189V26.248C29.4189 26.632 29.4989 26.8987 29.6589 27.048C29.8295 27.1867 30.1175 27.256 30.5229 27.256H31.5149V29H30.1229ZM36.0573 29.192C35.3746 29.192 34.8146 29.0853 34.3773 28.872C33.9399 28.648 33.6146 28.3547 33.4013 27.992C33.1879 27.6293 33.0813 27.2293 33.0813 26.792C33.0813 26.056 33.3693 25.4587 33.9453 25C34.5213 24.5413 35.3853 24.312 36.5373 24.312H38.5533V24.12C38.5533 23.576 38.3986 23.176 38.0893 22.92C37.7799 22.664 37.3959 22.536 36.9373 22.536C36.5213 22.536 36.1586 22.6373 35.8493 22.84C35.5399 23.032 35.3479 23.32 35.2733 23.704H33.2733C33.3266 23.128 33.5186 22.6267 33.8493 22.2C34.1906 21.7733 34.6279 21.448 35.1613 21.224C35.6946 20.9893 36.2919 20.872 36.9533 20.872C38.0839 20.872 38.9746 21.1547 39.6253 21.72C40.2759 22.2853 40.6013 23.0853 40.6013 24.12V29H38.8573L38.6653 27.72C38.4306 28.1467 38.0999 28.4987 37.6733 28.776C37.2573 29.0533 36.7186 29.192 36.0573 29.192ZM36.5213 27.592C37.1079 27.592 37.5613 27.4 37.8813 27.016C38.2119 26.632 38.4199 26.1573 38.5053 25.592H36.7613C36.2173 25.592 35.8279 25.6933 35.5933 25.896C35.3586 26.088 35.2413 26.328 35.2413 26.616C35.2413 26.9253 35.3586 27.1653 35.5933 27.336C35.8279 27.5067 36.1373 27.592 36.5213 27.592ZM42.5556 29V21.064H44.3796L44.5716 22.552C44.8596 22.04 45.249 21.6347 45.7396 21.336C46.241 21.0267 46.8276 20.872 47.4996 20.872V23.032H46.9236C46.4756 23.032 46.0756 23.1013 45.7236 23.24C45.3716 23.3787 45.0943 23.6187 44.8916 23.96C44.6996 24.3013 44.6036 24.776 44.6036 25.384V29H42.5556ZM52.4354 29C51.6034 29 50.9367 28.7973 50.4354 28.392C49.934 27.9867 49.6834 27.2667 49.6834 26.232V22.776H48.3234V21.064H49.6834L49.9234 18.936H51.7314V21.064H53.8754V22.776H51.7314V26.248C51.7314 26.632 51.8114 26.8987 51.9714 27.048C52.142 27.1867 52.43 27.256 52.8354 27.256H53.8274V29H52.4354ZM62.4223 29.192C61.4303 29.192 60.6623 28.8827 60.1183 28.264C59.5849 27.6453 59.3183 26.7387 59.3183 25.544V21.064H61.3503V25.352C61.3503 26.0347 61.4889 26.5573 61.7663 26.92C62.0436 27.2827 62.4809 27.464 63.0783 27.464C63.6436 27.464 64.1076 27.2613 64.4703 26.856C64.8436 26.4507 65.0303 25.8853 65.0303 25.16V21.064H67.0783V29H65.2703L65.1103 27.656C64.8649 28.1253 64.5076 28.4987 64.0383 28.776C63.5796 29.0533 63.0409 29.192 62.4223 29.192ZM72.4606 29.192C71.7566 29.192 71.138 29.08 70.6046 28.856C70.0713 28.6213 69.6446 28.3013 69.3246 27.896C69.0046 27.4907 68.8126 27.0213 68.7486 26.488H70.8126C70.8766 26.7973 71.0473 27.064 71.3246 27.288C71.6126 27.5013 71.9806 27.608 72.4286 27.608C72.8766 27.608 73.202 27.5173 73.4046 27.336C73.618 27.1547 73.7246 26.9467 73.7246 26.712C73.7246 26.3707 73.5753 26.1413 73.2766 26.024C72.978 25.896 72.562 25.7733 72.0286 25.656C71.6873 25.5813 71.3406 25.4907 70.9886 25.384C70.6366 25.2773 70.3113 25.144 70.0126 24.984C69.7246 24.8133 69.49 24.6 69.3086 24.344C69.1273 24.0773 69.0366 23.752 69.0366 23.368C69.0366 22.664 69.314 22.072 69.8686 21.592C70.434 21.112 71.2233 20.872 72.2366 20.872C73.1753 20.872 73.922 21.0907 74.4766 21.528C75.042 21.9653 75.378 22.568 75.4846 23.336H73.5486C73.4313 22.7493 72.9886 22.456 72.2206 22.456C71.8366 22.456 71.538 22.5307 71.3246 22.68C71.122 22.8293 71.0206 23.016 71.0206 23.24C71.0206 23.4747 71.1753 23.6613 71.4846 23.8C71.794 23.9387 72.2046 24.0667 72.7166 24.184C73.2713 24.312 73.778 24.456 74.2366 24.616C74.706 24.7653 75.0793 24.9947 75.3566 25.304C75.634 25.6027 75.7726 26.0347 75.7726 26.6C75.7833 27.0907 75.6553 27.5333 75.3886 27.928C75.122 28.3227 74.738 28.632 74.2366 28.856C73.7353 29.08 73.1433 29.192 72.4606 29.192ZM78.6909 19.832C78.3175 19.832 78.0082 19.72 77.7629 19.496C77.5282 19.272 77.4109 18.9893 77.4109 18.648C77.4109 18.3067 77.5282 18.0293 77.7629 17.816C78.0082 17.592 78.3175 17.48 78.6909 17.48C79.0642 17.48 79.3682 17.592 79.6029 17.816C79.8482 18.0293 79.9709 18.3067 79.9709 18.648C79.9709 18.9893 79.8482 19.272 79.6029 19.496C79.3682 19.72 79.0642 19.832 78.6909 19.832ZM77.6669 29V21.064H79.7149V29H77.6669ZM81.8525 29V21.064H83.6605L83.8205 22.408C84.0658 21.9387 84.4178 21.5653 84.8765 21.288C85.3458 21.0107 85.8952 20.872 86.5245 20.872C87.5058 20.872 88.2685 21.1813 88.8125 21.8C89.3565 22.4187 89.6285 23.3253 89.6285 24.52V29H87.5805V24.712C87.5805 24.0293 87.4418 23.5067 87.1645 23.144C86.8872 22.7813 86.4552 22.6 85.8685 22.6C85.2925 22.6 84.8178 22.8027 84.4445 23.208C84.0818 23.6133 83.9005 24.1787 83.9005 24.904V29H81.8525ZM94.9469 26.632C94.5629 26.632 94.2055 26.5893 93.8749 26.504L93.2829 27.096C93.4642 27.192 93.7095 27.272 94.0189 27.336C94.3282 27.4 94.8295 27.464 95.5229 27.528C96.5789 27.624 97.3469 27.8747 97.8269 28.28C98.3069 28.6853 98.5469 29.2453 98.5469 29.96C98.5469 30.4293 98.4189 30.872 98.1629 31.288C97.9069 31.7147 97.5122 32.056 96.9789 32.312C96.4455 32.5787 95.7629 32.712 94.9309 32.712C93.8002 32.712 92.8882 32.4987 92.1949 32.072C91.5015 31.656 91.1549 31.0267 91.1549 30.184C91.1549 29.4693 91.5015 28.8507 92.1949 28.328C91.9815 28.232 91.7949 28.1307 91.6349 28.024C91.4855 27.9173 91.3522 27.8053 91.2349 27.688V27.32L92.6269 25.848C92.0082 25.304 91.6989 24.6053 91.6989 23.752C91.6989 23.2187 91.8269 22.7333 92.0829 22.296C92.3495 21.8587 92.7229 21.512 93.2029 21.256C93.6829 21 94.2642 20.872 94.9469 20.872C95.3949 20.872 95.8109 20.936 96.1949 21.064H99.2029V22.312L97.8429 22.408C98.0562 22.8133 98.1629 23.2613 98.1629 23.752C98.1629 24.2853 98.0349 24.7707 97.7789 25.208C97.5229 25.6453 97.1495 25.992 96.6589 26.248C96.1789 26.504 95.6082 26.632 94.9469 26.632ZM94.9469 25.064C95.3629 25.064 95.7042 24.952 95.9709 24.728C96.2482 24.504 96.3869 24.184 96.3869 23.768C96.3869 23.352 96.2482 23.032 95.9709 22.808C95.7042 22.584 95.3629 22.472 94.9469 22.472C94.5095 22.472 94.1575 22.584 93.8909 22.808C93.6242 23.032 93.4909 23.352 93.4909 23.768C93.4909 24.184 93.6242 24.504 93.8909 24.728C94.1575 24.952 94.5095 25.064 94.9469 25.064ZM93.0269 29.976C93.0269 30.3707 93.2082 30.664 93.5709 30.856C93.9442 31.0587 94.3975 31.16 94.9309 31.16C95.4429 31.16 95.8589 31.0533 96.1789 30.84C96.4989 30.6373 96.6589 30.36 96.6589 30.008C96.6589 29.72 96.5522 29.48 96.3389 29.288C96.1362 29.096 95.7255 28.9787 95.1069 28.936C94.6695 28.904 94.2642 28.856 93.8909 28.792C93.5815 28.9627 93.3575 29.1493 93.2189 29.352C93.0909 29.5547 93.0269 29.7627 93.0269 29.976ZM104.557 29V17.8H108.701C109.597 17.8 110.338 17.9493 110.925 18.248C111.511 18.5467 111.949 18.9573 112.237 19.48C112.525 20.0027 112.669 20.5893 112.669 21.24C112.669 21.8587 112.53 22.4293 112.253 22.952C111.975 23.464 111.543 23.88 110.957 24.2C110.37 24.5093 109.618 24.664 108.701 24.664H106.605V29H104.557ZM106.605 23H108.573C109.287 23 109.799 22.8453 110.109 22.536C110.429 22.216 110.589 21.784 110.589 21.24C110.589 20.6853 110.429 20.2533 110.109 19.944C109.799 19.624 109.287 19.464 108.573 19.464H106.605V23ZM114.228 29V17.48H116.276V29H114.228ZM121.344 29.192C120.352 29.192 119.584 28.8827 119.04 28.264C118.507 27.6453 118.24 26.7387 118.24 25.544V21.064H120.272V25.352C120.272 26.0347 120.411 26.5573 120.688 26.92C120.965 27.2827 121.403 27.464 122 27.464C122.565 27.464 123.029 27.2613 123.392 26.856C123.765 26.4507 123.952 25.8853 123.952 25.16V21.064H126V29H124.192L124.032 27.656C123.787 28.1253 123.429 28.4987 122.96 28.776C122.501 29.0533 121.963 29.192 121.344 29.192ZM128.103 29V21.064H129.927L130.119 22.552C130.407 22.04 130.796 21.6347 131.286 21.336C131.788 21.0267 132.375 20.872 133.047 20.872V23.032H132.471C132.023 23.032 131.623 23.1013 131.271 23.24C130.919 23.3787 130.641 23.6187 130.439 23.96C130.247 24.3013 130.151 24.776 130.151 25.384V29H128.103ZM134.446 29V21.064H136.27L136.462 22.552C136.75 22.04 137.14 21.6347 137.63 21.336C138.132 21.0267 138.718 20.872 139.39 20.872V23.032H138.814C138.366 23.032 137.966 23.1013 137.614 23.24C137.262 23.3787 136.985 23.6187 136.782 23.96C136.59 24.3013 136.494 24.776 136.494 25.384V29H134.446ZM141.894 19.832C141.521 19.832 141.211 19.72 140.966 19.496C140.731 19.272 140.614 18.9893 140.614 18.648C140.614 18.3067 140.731 18.0293 140.966 17.816C141.211 17.592 141.521 17.48 141.894 17.48C142.267 17.48 142.571 17.592 142.806 17.816C143.051 18.0293 143.174 18.3067 143.174 18.648C143.174 18.9893 143.051 19.272 142.806 19.496C142.571 19.72 142.267 19.832 141.894 19.832ZM140.87 29V21.064H142.918V29H140.87ZM148.912 29.192C148.112 29.192 147.402 29.0213 146.784 28.68C146.165 28.3387 145.68 27.8587 145.328 27.24C144.976 26.6213 144.8 25.9067 144.8 25.096C144.8 24.2747 144.97 23.544 145.312 22.904C145.664 22.264 146.144 21.768 146.752 21.416C147.37 21.0533 148.096 20.872 148.928 20.872C149.706 20.872 150.394 21.0427 150.992 21.384C151.589 21.7253 152.053 22.1947 152.384 22.792C152.725 23.3787 152.896 24.0347 152.896 24.76C152.896 24.8773 152.89 25 152.88 25.128C152.88 25.256 152.874 25.3893 152.864 25.528H146.832C146.874 26.1467 147.088 26.632 147.472 26.984C147.866 27.336 148.341 27.512 148.896 27.512C149.312 27.512 149.658 27.4213 149.936 27.24C150.224 27.048 150.437 26.8027 150.576 26.504H152.656C152.506 27.0053 152.256 27.464 151.904 27.88C151.562 28.2853 151.136 28.6053 150.624 28.84C150.122 29.0747 149.552 29.192 148.912 29.192ZM148.928 22.536C148.426 22.536 147.984 22.68 147.6 22.968C147.216 23.2453 146.97 23.672 146.864 24.248H150.816C150.784 23.7253 150.592 23.3093 150.24 23C149.888 22.6907 149.45 22.536 148.928 22.536ZM154.618 29V17.48H156.666V29H154.618Z" fill="#1E1E2E"/>
<path d="M175.867 25.05H169.15C168.861 25.05 168.614 24.9472 168.408 24.7417C168.203 24.5361 168.1 24.2889 168.1 24C168.1 23.7111 168.203 23.4639 168.408 23.2583C168.614 23.0528 168.861 22.95 169.15 22.95H175.867L173.25 20.3333C173.039 20.1222 172.933 19.8722 172.933 19.5833C172.933 19.2944 173.039 19.0444 173.25 18.8333C173.461 18.6333 173.711 18.5333 174 18.5333C174.289 18.5333 174.539 18.6389 174.75 18.85L179.15 23.25C179.25 23.35 179.328 23.4667 179.383 23.6C179.439 23.7333 179.467 23.8667 179.467 24C179.467 24.1333 179.439 24.2667 179.383 24.4C179.328 24.5333 179.25 24.65 179.15 24.75L174.733 29.1667C174.522 29.3778 174.275 29.4833 173.992 29.4833C173.708 29.4833 173.461 29.3778 173.25 29.1667C173.039 28.9555 172.933 28.7055 172.933 28.4167C172.933 28.1278 173.039 27.8778 173.25 27.6667L175.867 25.05Z" fill="#1E1E2E"/>
</svg>
