<svg width="205" height="48" viewBox="0 0 205 48" fill="none" xmlns="http://www.w3.org/2000/svg">
<rect width="205" height="48" rx="16" fill="#313244"/>
<path d="M20.56 29L16.352 17.8H17.808L21.344 27.576L24.912 17.8H26.336L22.128 29H20.56ZM28.6075 19.304C28.3408 19.304 28.1168 19.2187 27.9355 19.048C27.7648 18.8667 27.6795 18.6427 27.6795 18.376C27.6795 18.12 27.7648 17.9067 27.9355 17.736C28.1168 17.5653 28.3408 17.48 28.6075 17.48C28.8635 17.48 29.0822 17.5653 29.2635 17.736C29.4448 17.9067 29.5355 18.12 29.5355 18.376C29.5355 18.6427 29.4448 18.8667 29.2635 19.048C29.0822 19.2187 28.8635 19.304 28.6075 19.304ZM27.9355 29V21.064H29.2795V29H27.9355ZM34.6596 29.192C33.7103 29.192 32.921 28.952 32.2916 28.472C31.6623 27.992 31.2943 27.3413 31.1876 26.52H32.5636C32.649 26.936 32.8676 27.2987 33.2196 27.608C33.5823 27.9067 34.0676 28.056 34.6756 28.056C35.241 28.056 35.657 27.9387 35.9236 27.704C36.1903 27.4587 36.3236 27.1707 36.3236 26.84C36.3236 26.36 36.1476 26.04 35.7956 25.88C35.4543 25.72 34.969 25.576 34.3396 25.448C33.913 25.3627 33.4863 25.24 33.0596 25.08C32.633 24.92 32.2756 24.696 31.9876 24.408C31.6996 24.1093 31.5556 23.72 31.5556 23.24C31.5556 22.5467 31.8116 21.9813 32.3236 21.544C32.8463 21.096 33.5503 20.872 34.4356 20.872C35.2783 20.872 35.9663 21.0853 36.4996 21.512C37.0436 21.928 37.3583 22.5253 37.4436 23.304H36.1156C36.0623 22.8987 35.8863 22.584 35.5876 22.36C35.2996 22.1253 34.9103 22.008 34.4196 22.008C33.9396 22.008 33.5663 22.1093 33.2996 22.312C33.0436 22.5147 32.9156 22.7813 32.9156 23.112C32.9156 23.432 33.081 23.6827 33.4116 23.864C33.753 24.0453 34.2116 24.2 34.7876 24.328C35.2783 24.4347 35.7423 24.568 36.1796 24.728C36.6276 24.8773 36.9903 25.1067 37.2676 25.416C37.5556 25.7147 37.6996 26.152 37.6996 26.728C37.7103 27.4427 37.4383 28.0347 36.8836 28.504C36.3396 28.9627 35.5983 29.192 34.6596 29.192ZM40.4356 19.304C40.169 19.304 39.945 19.2187 39.7636 19.048C39.593 18.8667 39.5076 18.6427 39.5076 18.376C39.5076 18.12 39.593 17.9067 39.7636 17.736C39.945 17.5653 40.169 17.48 40.4356 17.48C40.6916 17.48 40.9103 17.5653 41.0916 17.736C41.273 17.9067 41.3636 18.12 41.3636 18.376C41.3636 18.6427 41.273 18.8667 41.0916 19.048C40.9103 19.2187 40.6916 19.304 40.4356 19.304ZM39.7636 29V21.064H41.1076V29H39.7636ZM46.5838 29C45.8584 29 45.2878 28.824 44.8718 28.472C44.4558 28.12 44.2478 27.4853 44.2478 26.568V22.2H42.8717V21.064H44.2478L44.4238 19.16H45.5918V21.064H47.9278V22.2H45.5918V26.568C45.5918 27.0693 45.6931 27.4107 45.8958 27.592C46.0984 27.7627 46.4558 27.848 46.9678 27.848H47.7998V29H46.5838ZM57.4856 29.192C56.739 29.192 56.067 29.0213 55.4696 28.68C54.8723 28.3387 54.3976 27.8587 54.0456 27.24C53.7043 26.6107 53.5336 25.8747 53.5336 25.032C53.5336 24.1893 53.7096 23.4587 54.0616 22.84C54.4136 22.2107 54.8883 21.7253 55.4856 21.384C56.0936 21.0427 56.771 20.872 57.5176 20.872C58.2643 20.872 58.9363 21.0427 59.5336 21.384C60.131 21.7253 60.6003 22.2107 60.9416 22.84C61.2936 23.4587 61.4696 24.1893 61.4696 25.032C61.4696 25.8747 61.2936 26.6107 60.9416 27.24C60.5896 27.8587 60.1096 28.3387 59.5016 28.68C58.9043 29.0213 58.2323 29.192 57.4856 29.192ZM57.4856 28.04C57.9443 28.04 58.371 27.928 58.7656 27.704C59.1603 27.48 59.4803 27.144 59.7256 26.696C59.971 26.248 60.0936 25.6933 60.0936 25.032C60.0936 24.3707 59.971 23.816 59.7256 23.368C59.491 22.92 59.1763 22.584 58.7816 22.36C58.387 22.136 57.9656 22.024 57.5176 22.024C57.059 22.024 56.6323 22.136 56.2376 22.36C55.843 22.584 55.523 22.92 55.2776 23.368C55.0323 23.816 54.9096 24.3707 54.9096 25.032C54.9096 25.6933 55.0323 26.248 55.2776 26.696C55.523 27.144 55.8376 27.48 56.2216 27.704C56.6163 27.928 57.0376 28.04 57.4856 28.04ZM66.2344 29.192C65.2957 29.192 64.549 28.9093 63.9944 28.344C63.4397 27.768 63.1624 26.888 63.1624 25.704V21.064H64.5064V25.56C64.5064 27.2133 65.1837 28.04 66.5384 28.04C67.2317 28.04 67.8024 27.7947 68.2504 27.304C68.709 26.8027 68.9384 26.0933 68.9384 25.176V21.064H70.2824V29H69.0664L68.9704 27.576C68.725 28.0773 68.357 28.472 67.8664 28.76C67.3864 29.048 66.8424 29.192 66.2344 29.192ZM72.4946 29V21.064H73.7106L73.8226 22.584C74.068 22.0613 74.4413 21.6453 74.9426 21.336C75.444 21.0267 76.0626 20.872 76.7986 20.872V22.28H76.4306C75.9613 22.28 75.5293 22.3653 75.1346 22.536C74.74 22.696 74.4253 22.9733 74.1906 23.368C73.956 23.7627 73.8386 24.3067 73.8386 25V29H72.4946ZM82.5415 29V17.48H83.8855V22.424C84.1522 21.9333 84.5308 21.5547 85.0215 21.288C85.5122 21.0107 86.0455 20.872 86.6215 20.872C87.5388 20.872 88.2748 21.16 88.8295 21.736C89.3842 22.3013 89.6615 23.176 89.6615 24.36V29H88.3335V24.504C88.3335 22.8507 87.6668 22.024 86.3335 22.024C85.6402 22.024 85.0588 22.2747 84.5895 22.776C84.1202 23.2667 83.8855 23.9707 83.8855 24.888V29H82.5415ZM95.3138 29.192C94.5671 29.192 93.8951 29.0213 93.2978 28.68C92.7004 28.3387 92.2258 27.8587 91.8738 27.24C91.5324 26.6107 91.3618 25.8747 91.3618 25.032C91.3618 24.1893 91.5378 23.4587 91.8898 22.84C92.2418 22.2107 92.7164 21.7253 93.3138 21.384C93.9218 21.0427 94.5991 20.872 95.3458 20.872C96.0924 20.872 96.7644 21.0427 97.3618 21.384C97.9591 21.7253 98.4284 22.2107 98.7698 22.84C99.1218 23.4587 99.2978 24.1893 99.2978 25.032C99.2978 25.8747 99.1218 26.6107 98.7698 27.24C98.4178 27.8587 97.9378 28.3387 97.3298 28.68C96.7324 29.0213 96.0604 29.192 95.3138 29.192ZM95.3138 28.04C95.7724 28.04 96.1991 27.928 96.5938 27.704C96.9884 27.48 97.3084 27.144 97.5538 26.696C97.7991 26.248 97.9218 25.6933 97.9218 25.032C97.9218 24.3707 97.7991 23.816 97.5538 23.368C97.3191 22.92 97.0044 22.584 96.6098 22.36C96.2151 22.136 95.7938 22.024 95.3458 22.024C94.8871 22.024 94.4604 22.136 94.0658 22.36C93.6711 22.584 93.3511 22.92 93.1058 23.368C92.8604 23.816 92.7378 24.3707 92.7378 25.032C92.7378 25.6933 92.8604 26.248 93.1058 26.696C93.3511 27.144 93.6658 27.48 94.0498 27.704C94.4444 27.928 94.8658 28.04 95.3138 28.04ZM101.167 29V21.064H102.383L102.479 22.216C102.735 21.7893 103.076 21.4587 103.503 21.224C103.929 20.9893 104.409 20.872 104.943 20.872C105.572 20.872 106.111 21 106.559 21.256C107.017 21.512 107.369 21.9013 107.615 22.424C107.892 21.944 108.271 21.5653 108.751 21.288C109.241 21.0107 109.769 20.872 110.335 20.872C111.284 20.872 112.041 21.16 112.607 21.736C113.172 22.3013 113.455 23.176 113.455 24.36V29H112.127V24.504C112.127 23.6827 111.961 23.064 111.631 22.648C111.3 22.232 110.825 22.024 110.207 22.024C109.567 22.024 109.033 22.2747 108.607 22.776C108.191 23.2667 107.983 23.9707 107.983 24.888V29H106.639V24.504C106.639 23.6827 106.473 23.064 106.143 22.648C105.812 22.232 105.337 22.024 104.719 22.024C104.089 22.024 103.561 22.2747 103.135 22.776C102.719 23.2667 102.511 23.9707 102.511 24.888V29H101.167ZM119.047 29.192C118.29 29.192 117.618 29.0213 117.031 28.68C116.444 28.328 115.98 27.8427 115.639 27.224C115.308 26.6053 115.143 25.8747 115.143 25.032C115.143 24.2 115.308 23.4747 115.639 22.856C115.97 22.2267 116.428 21.7413 117.015 21.4C117.612 21.048 118.3 20.872 119.079 20.872C119.847 20.872 120.508 21.048 121.063 21.4C121.628 21.7413 122.06 22.1947 122.359 22.76C122.658 23.3253 122.807 23.9333 122.807 24.584C122.807 24.7013 122.802 24.8187 122.791 24.936C122.791 25.0533 122.791 25.1867 122.791 25.336H116.471C116.503 25.944 116.642 26.4507 116.887 26.856C117.143 27.2507 117.458 27.5493 117.831 27.752C118.215 27.9547 118.62 28.056 119.047 28.056C119.602 28.056 120.066 27.928 120.439 27.672C120.812 27.416 121.084 27.0693 121.255 26.632H122.583C122.37 27.368 121.959 27.9813 121.351 28.472C120.754 28.952 119.986 29.192 119.047 29.192ZM119.047 22.008C118.407 22.008 117.836 22.2053 117.335 22.6C116.844 22.984 116.562 23.5493 116.487 24.296H121.479C121.447 23.5813 121.202 23.0213 120.743 22.616C120.284 22.2107 119.719 22.008 119.047 22.008ZM128.823 32.52V21.064H130.039L130.167 22.376C130.423 21.992 130.785 21.6453 131.255 21.336C131.735 21.0267 132.343 20.872 133.079 20.872C133.868 20.872 134.556 21.0533 135.143 21.416C135.729 21.7787 136.183 22.2747 136.503 22.904C136.833 23.5333 136.999 24.248 136.999 25.048C136.999 25.848 136.833 26.5627 136.503 27.192C136.183 27.8107 135.724 28.3013 135.127 28.664C134.54 29.016 133.852 29.192 133.063 29.192C132.412 29.192 131.831 29.0587 131.319 28.792C130.817 28.5253 130.433 28.152 130.167 27.672V32.52H128.823ZM132.919 28.024C133.452 28.024 133.921 27.9013 134.327 27.656C134.732 27.4 135.052 27.048 135.287 26.6C135.521 26.152 135.639 25.6293 135.639 25.032C135.639 24.4347 135.521 23.912 135.287 23.464C135.052 23.016 134.732 22.6693 134.327 22.424C133.921 22.168 133.452 22.04 132.919 22.04C132.385 22.04 131.916 22.168 131.511 22.424C131.105 22.6693 130.785 23.016 130.551 23.464C130.316 23.912 130.199 24.4347 130.199 25.032C130.199 25.6293 130.316 26.152 130.551 26.6C130.785 27.048 131.105 27.4 131.511 27.656C131.916 27.9013 132.385 28.024 132.919 28.024ZM141.51 29.192C140.848 29.192 140.299 29.08 139.862 28.856C139.424 28.632 139.099 28.3333 138.886 27.96C138.672 27.5867 138.566 27.1813 138.566 26.744C138.566 25.9333 138.875 25.3093 139.494 24.872C140.112 24.4347 140.955 24.216 142.022 24.216H144.166V24.12C144.166 23.4267 143.984 22.904 143.622 22.552C143.259 22.1893 142.774 22.008 142.166 22.008C141.643 22.008 141.19 22.1413 140.806 22.408C140.432 22.664 140.198 23.0427 140.102 23.544H138.726C138.779 22.968 138.971 22.4827 139.302 22.088C139.643 21.6933 140.064 21.3947 140.566 21.192C141.067 20.9787 141.6 20.872 142.166 20.872C143.275 20.872 144.107 21.1707 144.662 21.768C145.227 22.3547 145.51 23.1387 145.51 24.12V29H144.31L144.23 27.576C144.006 28.024 143.675 28.408 143.238 28.728C142.811 29.0373 142.235 29.192 141.51 29.192ZM141.718 28.056C142.23 28.056 142.667 27.9227 143.03 27.656C143.403 27.3893 143.686 27.0427 143.878 26.616C144.07 26.1893 144.166 25.7413 144.166 25.272V25.256H142.134C141.344 25.256 140.784 25.3947 140.454 25.672C140.134 25.9387 139.974 26.2747 139.974 26.68C139.974 27.096 140.123 27.432 140.422 27.688C140.731 27.9333 141.163 28.056 141.718 28.056ZM150.662 26.504C150.214 26.504 149.803 26.4453 149.43 26.328L148.63 27.08C148.747 27.1653 148.891 27.24 149.062 27.304C149.243 27.3573 149.499 27.4107 149.83 27.464C150.161 27.5067 150.625 27.5547 151.222 27.608C152.289 27.6827 153.051 27.928 153.51 28.344C153.969 28.76 154.198 29.304 154.198 29.976C154.198 30.4347 154.07 30.872 153.814 31.288C153.569 31.704 153.185 32.0453 152.662 32.312C152.15 32.5787 151.489 32.712 150.678 32.712C149.963 32.712 149.329 32.616 148.774 32.424C148.219 32.2427 147.787 31.96 147.478 31.576C147.169 31.2027 147.014 30.728 147.014 30.152C147.014 29.8533 147.094 29.528 147.254 29.176C147.414 28.8347 147.713 28.5093 148.15 28.2C147.915 28.104 147.713 28.0027 147.542 27.896C147.382 27.7787 147.233 27.6507 147.094 27.512V27.144L148.454 25.8C147.825 25.2667 147.51 24.5627 147.51 23.688C147.51 23.1653 147.633 22.6907 147.878 22.264C148.123 21.8373 148.481 21.5013 148.95 21.256C149.419 21 149.99 20.872 150.662 20.872C151.121 20.872 151.537 20.936 151.91 21.064H154.838V22.072L153.35 22.136C153.659 22.584 153.814 23.1013 153.814 23.688C153.814 24.2107 153.686 24.6853 153.43 25.112C153.185 25.5387 152.827 25.88 152.358 26.136C151.899 26.3813 151.334 26.504 150.662 26.504ZM150.662 25.4C151.227 25.4 151.675 25.256 152.006 24.968C152.347 24.6693 152.518 24.2427 152.518 23.688C152.518 23.144 152.347 22.728 152.006 22.44C151.675 22.1413 151.227 21.992 150.662 21.992C150.086 21.992 149.627 22.1413 149.286 22.44C148.955 22.728 148.79 23.144 148.79 23.688C148.79 24.2427 148.955 24.6693 149.286 24.968C149.627 25.256 150.086 25.4 150.662 25.4ZM148.326 30.024C148.326 30.5573 148.55 30.952 148.998 31.208C149.446 31.4747 150.006 31.608 150.678 31.608C151.339 31.608 151.867 31.464 152.262 31.176C152.667 30.888 152.87 30.504 152.87 30.024C152.87 29.6827 152.731 29.384 152.454 29.128C152.177 28.8827 151.665 28.7387 150.918 28.696C150.331 28.6533 149.825 28.6 149.398 28.536C148.961 28.7707 148.673 29.0213 148.534 29.288C148.395 29.5653 148.326 29.8107 148.326 30.024ZM159.61 29.192C158.852 29.192 158.18 29.0213 157.594 28.68C157.007 28.328 156.543 27.8427 156.202 27.224C155.871 26.6053 155.706 25.8747 155.706 25.032C155.706 24.2 155.871 23.4747 156.202 22.856C156.532 22.2267 156.991 21.7413 157.578 21.4C158.175 21.048 158.863 20.872 159.641 20.872C160.41 20.872 161.071 21.048 161.626 21.4C162.191 21.7413 162.623 22.1947 162.922 22.76C163.22 23.3253 163.37 23.9333 163.37 24.584C163.37 24.7013 163.364 24.8187 163.354 24.936C163.354 25.0533 163.354 25.1867 163.354 25.336H157.034C157.066 25.944 157.204 26.4507 157.45 26.856C157.706 27.2507 158.02 27.5493 158.394 27.752C158.778 27.9547 159.183 28.056 159.61 28.056C160.164 28.056 160.628 27.928 161.002 27.672C161.375 27.416 161.647 27.0693 161.818 26.632H163.146C162.932 27.368 162.522 27.9813 161.914 28.472C161.316 28.952 160.548 29.192 159.61 29.192ZM159.61 22.008C158.97 22.008 158.399 22.2053 157.898 22.6C157.407 22.984 157.124 23.5493 157.049 24.296H162.042C162.01 23.5813 161.764 23.0213 161.306 22.616C160.847 22.2107 160.282 22.008 159.61 22.008Z" fill="#CDD6F4"/>
<path d="M175.1 28.4667V22.7667C175.1 22.4333 175.172 22.1194 175.317 21.825C175.461 21.5305 175.667 21.2833 175.933 21.0833L179.733 18.2333C180.111 17.9444 180.533 17.8 181 17.8C181.467 17.8 181.889 17.9444 182.267 18.2333L186.067 21.0833C186.333 21.2833 186.539 21.5305 186.683 21.825C186.828 22.1194 186.9 22.4333 186.9 22.7667V28.4667C186.9 29.0555 186.697 29.5528 186.292 29.9583C185.886 30.3639 185.389 30.5667 184.8 30.5667H183.517C183.228 30.5667 182.981 30.4639 182.775 30.2583C182.569 30.0528 182.467 29.8055 182.467 29.5167V26.25C182.467 25.9611 182.364 25.7139 182.158 25.5083C181.953 25.3028 181.706 25.2 181.417 25.2H180.583C180.294 25.2 180.047 25.3028 179.842 25.5083C179.636 25.7139 179.533 25.9611 179.533 26.25V29.5167C179.533 29.8055 179.431 30.0528 179.225 30.2583C179.019 30.4639 178.772 30.5667 178.483 30.5667H177.2C176.611 30.5667 176.114 30.3639 175.708 29.9583C175.303 29.5528 175.1 29.0555 175.1 28.4667Z" fill="#CDD6F4"/>
</svg>
